<?xml version="1.0" encoding="UTF-8"?><svg id="_이어_1" xmlns="http://www.w3.org/2000/svg" viewBox="0 0 200 200"><defs><style>.cls-1{fill:#e56445;}.cls-2{fill:#fff;}.cls-3{fill:#edddd6;}.cls-4{fill:#fca397;}.cls-5{fill:#507849;}</style></defs><circle class="cls-3" cx="100" cy="99.84" r="95.07" transform="translate(-41.31 99.95) rotate(-45)"/><path class="cls-5" d="M30.35,165.07c.2,.24,.41,.47,.63,.69,.29,.31,.59,.61,.88,.9,17.25,17.62,41.32,28.57,67.95,28.57,4.12,0,8.22-.27,12.19-.75,.04-.02,.06-.02,.1-.02,9.79-1.28,19.13-4.04,27.75-8.05-.82-34.44-.47-64.58-.47-65.15-.33-.71-16.27-4.81-37.5-5.51-33.4-1.06-61.63,17.78-71.54,49.33Z"/><path class="cls-5" d="M112,194.48s.06-.02,.1-.02c9.79-1.28,19.13-4.04,27.75-8.05,.71-.33,1.43-.67,2.14-1.02,14.05-6.95,26.12-17.31,35.16-29.98-18.31-25.1-33.28-32.42-37.77-34.16-.92-.37-1.39-.49-1.39-.49l-26,73.72Z"/><path class="cls-1" d="M99.44,59.86s-21.95,1.05-23.19-20c-1.32-22.41,19.41-24.56,28.22-15.5,8.81,9.06,7.18,18.28,7.18,18.28,0,0,6.14-5.53,12.83,1.26,4.91,4.99,2.38,13.14,2.38,13.14,0,0,11.32-.44,10.27,9.45-1.06,9.89-8.13,14.91-8.13,14.91l-29.55-21.53Z"/><path class="cls-4" d="M119.51,98.62l-2.28,23.32s-4.86,6.29-18.62,6.07c-10.25-.17-13.59-2.82-13.59-2.82l2.57-11.67,2.52-11.38,25.17-3.01,4.22-.51Z"/><path d="M115.29,99.13c-.12,.63-.44,1.36-.9,2.18-6.36,11.14-20.87,12.26-26.79,12.21l2.52-11.38,25.17-3.01Z"/><path class="cls-4" d="M90.12,48.47s-15.1,28.05-11.87,44.77c3.24,16.72,18.34,15.37,27.51,12.94,9.17-2.43,13.75-7.55,13.75-7.55,0,0,8.09,3.51,14.29-3.78,6.2-7.28,3.51-16.45-1.08-18.88-4.58-2.43-10.52,.54-10.52,.54l5.12-8.09s-15.1-44.5-37.22-19.96Z"/><path d="M121.93,89.28c-.35,0-.69-.18-.88-.51-.28-.49-.12-1.11,.37-1.39l9.25-5.37c.48-.28,1.11-.12,1.39,.37,.28,.49,.12,1.11-.37,1.39l-9.25,5.37c-.16,.09-.34,.14-.51,.14Z"/><path d="M129.48,90.09c-.16,0-.32-.04-.47-.12l-4.71-2.46c-.5-.26-.69-.88-.43-1.38,.26-.5,.88-.69,1.38-.43l4.71,2.46c.5,.26,.69,.88,.43,1.38-.18,.35-.54,.55-.9,.55Z"/><path d="M86.02,59.46c-.33,0-.65-.16-.85-.45-.31-.47-.19-1.1,.28-1.42,3.81-2.57,7.29-.09,7.44,.02,.45,.33,.55,.97,.22,1.42-.33,.45-.97,.55-1.42,.23-.12-.09-2.51-1.72-5.1,.02-.18,.12-.37,.17-.57,.17Z"/><path d="M89.16,86.02c-.48,0-.9-.34-1-.83-1.88-9.7,3.67-15.93,3.91-16.19,.38-.42,1.02-.44,1.44-.07,.42,.38,.45,1.02,.07,1.44-.05,.06-5.1,5.77-3.41,14.43,.11,.55-.25,1.09-.81,1.19-.07,.01-.13,.02-.2,.02Z"/><path d="M86.01,73.23c-.61-.02-1.04-.5-1.02-1.06l.24-5.57c.02-.56,.41-1.03,1.06-.97,.56,.02,1,.5,.98,1.06l-.24,5.57c-.02,.55-.48,.98-1.02,.98Z"/><path d="M101.32,74.69c-.61-.02-1.04-.5-1.02-1.06l.24-5.57c.02-.56,.4-1.02,1.06-.97,.56,.02,1,.5,.98,1.06l-.24,5.57c-.02,.55-.48,.98-1.02,.98Z"/><path class="cls-1" d="M87.02,54.82s2.99-4.44,8.81-3.91c5.82,.53,8.82,4.96,8.82,4.96,0,0-3.51,9.55,3.89,15.53,7.4,5.98,13.67,5.12,13.67,5.12l5.94-1.48,5.03-7.97-14.85-19.52-20.38-13.44-11.92,8.87,.99,11.85Z"/><path d="M94,91.99c-.88,0-1.47-.11-1.54-.12-.55-.11-.91-.64-.8-1.19,.11-.55,.64-.91,1.19-.81,.19,.04,4.7,.84,7.04-3.1,.29-.48,.92-.65,1.4-.36,.48,.29,.64,.91,.35,1.4-2.14,3.61-5.63,4.18-7.63,4.18Z"/><path class="cls-2" d="M79.87,81.63c-5.48,0-9.94-4.59-9.94-10.24s4.46-10.24,9.94-10.24,9.94,4.59,9.94,10.24-4.46,10.24-9.94,10.24Zm0-18.44c-4.36,0-7.9,3.68-7.9,8.2s3.54,8.2,7.9,8.2,7.9-3.68,7.9-8.2-3.54-8.2-7.9-8.2Z"/><path class="cls-2" d="M103.48,83.91c-5.65,0-10.24-4.59-10.24-10.24s4.59-10.24,10.24-10.24,10.24,4.59,10.24,10.24-4.59,10.24-10.24,10.24Zm0-18.44c-4.52,0-8.2,3.68-8.2,8.2s3.68,8.2,8.2,8.2,8.2-3.68,8.2-8.2-3.68-8.2-8.2-8.2Z"/><path class="cls-2" d="M95.25,73.62c-.09,0-7.29-.59-7.29-.59-.56-.05-.98-.54-.93-1.1,.05-.56,.56-.97,1.1-.93l7.21,.59c.56,.05,.98,.54,.93,1.1-.04,.53-.49,.94-1.01,.94Z"/><path class="cls-2" d="M128.15,76.05c-.27,0-.54-.11-.74-.32-4.43-4.72-14.14,.16-14.24,.21-.51,.25-1.12,.06-1.37-.44-.25-.5-.06-1.12,.44-1.37,.45-.23,11.17-5.62,16.65,.21,.39,.41,.37,1.06-.04,1.44-.2,.19-.45,.28-.7,.28Z"/><path class="cls-2" d="M98.33,128.22c-10.32,0-18.01-4.1-18.14-4.17-.49-.27-.68-.89-.41-1.38,.27-.49,.88-.68,1.38-.41,.19,.1,19.62,10.41,37.63-2.81,.45-.33,1.09-.24,1.43,.22,.33,.45,.23,1.09-.22,1.42-7.43,5.46-15.09,7.13-21.68,7.13Z"/><path d="M108.54,62.77c-.34,0-.67-.17-.86-.48-2.56-4.08-6.37-2.58-6.53-2.51-.51,.22-1.11-.03-1.33-.55-.21-.52,.03-1.11,.54-1.33,1.91-.8,6.25-1.15,9.05,3.31,.3,.48,.16,1.11-.32,1.41-.17,.11-.36,.16-.54,.16Z"/></svg>