<?xml version="1.0" encoding="UTF-8"?><svg id="_이어_1" xmlns="http://www.w3.org/2000/svg" viewBox="0 0 200 200"><defs><style>.cls-1{fill:#f27e64;}.cls-2{fill:#ffb255;}.cls-3{fill:#dff7e9;}.cls-4{fill:#7772d3;}</style></defs><path class="cls-3" d="M195.08,100c0,18.78-5.44,36.3-14.87,51.06-3.47,5.44-7.46,10.48-11.93,15.09-1.16,1.2-2.35,2.37-3.57,3.49-3.28,3.06-6.79,5.87-10.5,8.46-5.55,3.85-11.52,7.14-17.84,9.77-9.89,4.1-20.64,6.57-31.91,7.1-1.47,.06-2.96,.1-4.45,.1-.73,0-1.49,0-2.24-.02-11.15-.27-21.84-2.43-31.71-6.22-10.4-3.96-19.9-9.71-28.18-16.86-.39-.33-.77-.67-1.14-1.02-2.41-2.12-4.67-4.36-6.83-6.73-.77-.86-1.55-1.71-2.28-2.59-14.17-16.6-22.7-38.11-22.7-61.63C4.92,47.49,47.5,4.93,100.01,4.93s95.07,42.56,95.07,95.07Z"/><path class="cls-4" d="M66.06,188.83c-10.4-3.96-19.9-9.71-28.18-16.86-.39-.33-.77-.67-1.14-1.02-2.41-2.12-4.67-4.36-6.83-6.73-.77-.86-1.55-1.71-2.28-2.59,7.5-8.08,16.5-17.56,27.08-28.35,.33-.35,.67-.67,1.02-1,3.28-3.2,5.95-4.98,8.12-5.63,15.4-4.61,5.34,47.47,2.22,62.18Z"/><path class="cls-4" d="M164.72,169.64c-3.28,3.06-6.79,5.87-10.5,8.46-5.55,3.85-11.52,7.14-17.84,9.77-9.89,4.1-20.64,6.57-31.91,7.1-1.47,.06-2.96,.1-4.45,.1-.73,0-1.49,0-2.24-.02-11.15-.27-21.84-2.43-31.71-6.22-10.4-3.96-19.9-9.71-28.18-16.86-.39-.33-.77-.67-1.14-1.02,3.08-12.22,8.61-28.18,17.97-37.67,.33-.35,.67-.67,1.02-1,2.45-2.24,5.2-4.12,8.12-5.63,17.46-9.01,40.91-5.98,40.91-5.98,0,0,5.75,.08,13.85,2.45,0,0,.06,.02,.16,.04,.1,.04,.24,.08,.41,.14,7.97,2.32,18.09,6.89,27.24,15.62,1.2,1.14,2.39,2.37,3.55,3.65,6.4,7.12,11.22,17.01,14.76,27.06Z"/><path class="cls-1" d="M109.28,105.62l-.62,18.27s-3.86,5.21-15.84,5.94c-8.92,.54-11.99-1.29-11.99-1.29l1.55-9.24,1.53-9.01,21.72-3.99,3.64-.67Z"/><path d="M105.64,106.34c-.06,.56-.29,1.21-.64,1.96-4.8,10.11-17.36,12.04-22.51,12.38l1.45-10.07,21.7-4.27Z"/><path class="cls-1" d="M80.41,63.91s-11.3,25.4-7.39,39.73c3.91,14.34,16.97,12.17,24.78,9.46,7.82-2.71,11.47-7.47,11.47-7.47,0,0,7.27,2.52,12.19-4.22,4.92-6.74,1.97-14.54-2.18-16.36-4.15-1.81-9.12,1.16-9.12,1.16l3.93-7.38s-16.06-37.73-33.69-14.92Z"/><path d="M81.19,94.08c-.44,0-.84-.28-.97-.72-1.76-5.7,2.51-9.47,2.69-9.63,.42-.37,1.06-.32,1.43,.11,.37,.42,.32,1.07-.1,1.44-.14,.12-3.44,3.08-2.08,7.48,.17,.54-.13,1.11-.67,1.28-.1,.03-.2,.05-.3,.05Z"/><path d="M111.26,98.36c-.25,0-.5-.09-.7-.28-.41-.39-.43-1.03-.04-1.44l6.92-7.33c.38-.41,1.03-.43,1.44-.04,.41,.39,.43,1.03,.04,1.44l-6.92,7.33c-.2,.21-.47,.32-.74,.32Z"/><path d="M118.58,96.4c-.05,0-.1,0-.16-.01l-4.79-.72c-.56-.08-.94-.6-.85-1.16,.08-.56,.61-.94,1.16-.86l4.79,.72c.56,.08,.94,.6,.85,1.16-.08,.51-.51,.87-1.01,.87Z"/><path d="M92.68,88.81s-.09,0-.13,0c-.56-.07-.95-.58-.88-1.14l.84-6.57c.07-.56,.59-.95,1.14-.88,.56,.07,.95,.58,.88,1.14l-.84,6.57c-.07,.51-.5,.89-1.01,.89Z"/><path d="M78.57,87.57s-.1,0-.15-.01c-.56-.08-.94-.6-.86-1.16l.95-6.45c.08-.56,.6-.94,1.16-.86,.56,.08,.94,.6,.86,1.16l-.95,6.45c-.08,.51-.51,.87-1.01,.87Z"/><path d="M97.33,77.89c-.37,0-.72-.2-.91-.55-1.08-2.1-4.02-1.51-4.15-1.49-.54,.11-1.09-.23-1.21-.79-.12-.55,.23-1.09,.78-1.21,.19-.04,4.59-.95,6.39,2.55,.26,.5,.06,1.12-.44,1.37-.15,.08-.31,.11-.47,.11Z"/><path d="M83.57,74.96c-.32,0-.64-.16-.84-.44-.4-.59-.86-.91-1.41-.98-1.14-.14-2.51,.79-2.94,1.17-.42,.37-1.07,.33-1.44-.09-.37-.42-.33-1.06,.09-1.44,.23-.2,2.28-1.94,4.53-1.66,1.13,.14,2.12,.78,2.85,1.85,.32,.46,.2,1.1-.27,1.42-.18,.12-.38,.18-.58,.18Z"/><path d="M110.17,86.21s-1.18,5.96-4.54,3.8,4.54-13.14,4.54-13.14c0,0-9.27,3.22-15.03-4.37-5.77-7.59-3.08-12.37-3.08-12.37l-12.9,6.78s-2.7-15.26,1.84-18.19c4.54-2.92,12.2,0,12.2,0,0,0-.47-6.57,12.42-4.99,12.89,1.58,12.54,14.97,12.54,14.97,0,0,8.48-.38,11.34,7.22,2.87,7.6-2.39,13.46-2.39,13.46,0,0,6.01,1.36,3.25,6.59-2.77,5.23-6.34,7.71-6.34,7.71,0,0-1.67-11.03-13.86-7.47Z"/><path class="cls-2" d="M87.71,131.44c-3.12,0-6.45-.42-9.91-1.48-.54-.16-.84-.73-.68-1.27,.17-.54,.72-.85,1.27-.68,15.93,4.86,29.53-4.85,29.67-4.94,.45-.33,1.09-.23,1.42,.22,.33,.45,.23,1.09-.23,1.42-.47,.34-9.41,6.72-21.55,6.72Z"/><path class="cls-4" d="M168.28,166.15c-1.16,1.2-2.35,2.37-3.57,3.49-3.28,3.06-6.79,5.87-10.5,8.46-5.55,3.85-11.52,7.14-17.84,9.77-9.89,4.1-20.64,6.57-31.91,7.1l14.13-71.84s.06,.02,.16,.04c1.53,.51,14.21,4.83,27.65,15.76,4.49,3.63,9.05,7.99,13.32,13.19,3.1,3.77,6.04,8.61,8.56,14.03Z"/><path d="M84.98,101.89c-.64-.02-1.08-.49-1.07-1.05,.02-.56,.48-1.01,1.05-.99,.15,0,3.56,.05,6.33-3.17,.37-.43,1.01-.47,1.44-.11,.43,.37,.48,1.01,.11,1.44-3.21,3.73-7.23,3.88-7.86,3.88Z"/></svg>