<?xml version="1.0" encoding="UTF-8"?><svg id="_이어_1" xmlns="http://www.w3.org/2000/svg" viewBox="0 0 200 200"><defs><style>.cls-1{fill:#fff;}.cls-2{fill:#fff4cf;}.cls-3{fill:#fcb35b;}.cls-4{fill:#fca397;}.cls-5{fill:#6c6b7c;}.cls-6{fill:#ada9c4;}.cls-7{fill:#46467f;}.cls-8{fill:#7772d3;}</style></defs><path class="cls-2" d="M195.07,100c0,18.15-5.1,35.12-13.91,49.55-1.53,2.51-3.18,4.91-4.91,7.26-6.38,8.52-14.13,15.95-22.96,21.94-11.66,7.91-25.16,13.28-39.75,15.36-3.81,.55-7.69,.86-11.64,.92-.63,.04-1.26,.04-1.9,.04-7.67,0-15.15-.92-22.29-2.63-19.54-4.69-36.73-15.42-49.47-30.1-1.94-2.24-3.79-4.57-5.53-6.97-11.2-15.6-17.78-34.73-17.78-55.37C4.93,47.49,47.49,4.93,100,4.93s95.07,42.56,95.07,95.07Z"/><path class="cls-6" d="M86.48,65.59s-27.04-9.4-30.44,18.48c-3.4,27.88,39.17,39.42,45.43,15.11,6.26-24.32-14.99-33.59-14.99-33.59Z"/><path class="cls-3" d="M176.25,156.81c-6.38,8.52-14.13,15.95-22.96,21.94-11.66,7.91-25.16,13.28-39.75,15.36l-11.83-25.35-10.32-22.13-4.98-12.93-5.51-14.32,7.77-.9,4.57-.53,11.85-1.39,13.62-1.59s34.4,3.1,54.14,35.56c1.12,1.86,2.24,3.96,3.39,6.26Z"/><path class="cls-8" d="M153.29,178.76c-11.66,7.91-25.16,13.28-39.75,15.36-3.81,.55-7.69,.86-11.64,.92-.63,.04-1.26,.04-1.9,.04-7.67,0-15.15-.92-22.29-2.63l8.71-58.73,2.26-15.21,.84-5.69,1.12,.27,14.46,3.51,14.17,3.43s29.06,16.7,34.01,58.75Z"/><path class="cls-6" d="M129.95,81.48s7.88-8.14,6.14-21.22c-1.18-8.87-5.01-11.86-5.01-11.86,0,0,6.39-11.83-11.43-11.71-17.82,.12-28.58,8.5-28.58,8.5,0,0-8-4.27-11.97,5.09-3.97,9.36-.8,23.47-.8,23.47l51.66,7.71Z"/><path class="cls-4" d="M90.39,94.82l-.19,21.74s3.86,6.28,16.57,7.43c9.47,.85,12.51-3.98,12.51-3.98l-2.12-19.04-22.92-5.26-3.85-.89Z"/><path d="M90.44,93.49c.05,.59,.27,1.3,.61,2.1,4.77,10.9,21.84,15.57,27.31,16.11l-1.21-10.75-26.72-7.47Z"/><path class="cls-4" d="M122.44,51.45s11.17,27.36,6.53,42.46c-4.63,15.1-18.43,12.37-26.65,9.23-8.22-3.14-11.94-8.32-11.94-8.32,0,0-7.81,2.44-12.81-4.89-5-7.33-1.61-15.52,2.85-17.31,4.47-1.79,9.65,1.53,9.65,1.53l-3.93-7.97s18.31-39.55,36.29-14.74Z"/><path class="cls-6" d="M90.08,74.16s11.56,2.74,20.08-9.93c8.52-12.67,7.96-18.02,7.96-18.02l7.6,13.64s2.12-9.21-1.39-15.24c-3.51-6.04-7.4-4.94-7.4-4.94l-25.88,5.54-7.46,20.34,6.48,8.62Z"/><path d="M120.38,85.97c-.11,0-.22-.02-.33-.06-.53-.18-.82-.76-.63-1.3,1.67-4.85-1.85-10.3-1.88-10.35-.31-.47-.18-1.1,.29-1.41,.47-.31,1.1-.18,1.41,.29,.17,.26,4.1,6.33,2.11,12.13-.15,.42-.54,.69-.96,.69Z"/><path d="M88.56,86.97c-.28,0-.56-.12-.76-.34l-7.11-8.02c-.37-.42-.33-1.07,.09-1.44,.42-.37,1.06-.34,1.44,.09l7.11,8.02c.37,.42,.33,1.07-.09,1.44-.19,.17-.44,.26-.68,.26Z"/><path d="M80.84,84.64c-.51,0-.95-.38-1.01-.9-.07-.56,.33-1.07,.89-1.13l5.11-.61c.57-.07,1.07,.33,1.13,.89,.07,.56-.33,1.07-.89,1.13l-5.11,.61s-.08,0-.12,0Z"/><path class="cls-5" d="M126.35,63.99c-.07,0-.14,0-.21-.02l-4.78-1c-.55-.11-.9-.66-.79-1.21,.12-.55,.65-.91,1.21-.79l4.78,1c.55,.11,.9,.66,.79,1.21-.1,.48-.52,.81-1,.81Z"/><path class="cls-5" d="M106.26,66.46c-.39,0-.75-.22-.93-.59-.24-.51-.01-1.12,.5-1.35l6.41-2.98c.51-.24,1.12-.01,1.35,.5,.24,.51,.01,1.12-.5,1.35l-6.41,2.98c-.14,.06-.28,.09-.43,.09Z"/><path d="M125.97,75.1c-.45,0-.86-.3-.98-.75l-1.33-4.94c-.09-.33,0-.68,.22-.94l1.56-1.78c.37-.43,1.01-.47,1.44-.09,.42,.37,.47,1.01,.09,1.44l-1.2,1.37,1.19,4.41c.15,.54-.18,1.1-.72,1.25-.09,.02-.18,.03-.27,.03Z"/><path d="M112.25,75.94c-.45,0-.86-.3-.98-.75l-1.33-4.94c-.09-.34,0-.7,.23-.95l2.15-2.35c.38-.42,1.03-.45,1.44-.06,.42,.38,.44,1.03,.06,1.44l-1.77,1.93,1.19,4.39c.15,.54-.18,1.1-.72,1.25-.09,.02-.18,.03-.27,.03Z"/><path class="cls-1" d="M109.24,125.2c-7.85,0-15.85-4.43-16.35-4.71-.49-.28-.66-.9-.39-1.39,.28-.49,.89-.67,1.39-.39,.17,.09,17.09,9.45,24.62,.62,.37-.43,1.01-.48,1.44-.12,.43,.37,.48,1.01,.11,1.44-2.9,3.4-6.84,4.54-10.82,4.54Z"/><path class="cls-7" d="M130.02,85.19c-.12,0-.24,0-.36,0-4.52-.22-8-4.55-7.76-9.66,.25-5.11,4.14-9.08,8.65-8.87,2.22,.11,4.25,1.19,5.71,3.05,1.43,1.82,2.16,4.17,2.04,6.61-.12,2.45-1.06,4.72-2.67,6.39-1.55,1.62-3.53,2.49-5.62,2.49Zm.18-16.51c-3.29,0-6.07,3.05-6.26,6.94-.19,3.99,2.42,7.36,5.82,7.52,1.62,.07,3.19-.58,4.41-1.86,1.26-1.31,2.01-3.12,2.1-5.07,.09-1.96-.48-3.82-1.61-5.25-1.1-1.39-2.59-2.2-4.21-2.27-.09,0-.17,0-.25,0Z"/><path class="cls-7" d="M109.56,85.58c-.15,0-.3,0-.46-.01-5.11-.25-9.07-4.6-8.82-9.71,.12-2.47,1.19-4.76,3.03-6.42,1.84-1.67,4.22-2.51,6.68-2.4,2.48,.12,4.76,1.19,6.42,3.03,1.67,1.83,2.52,4.21,2.4,6.68-.12,2.48-1.19,4.76-3.03,6.42-1.72,1.56-3.92,2.41-6.23,2.41Zm-.02-16.52c-1.8,0-3.51,.66-4.86,1.88-1.43,1.3-2.27,3.08-2.36,5.01-.19,3.99,2.9,7.39,6.88,7.58,1.93,.09,3.78-.57,5.21-1.87,1.43-1.3,2.27-3.08,2.36-5.01,.09-1.93-.57-3.78-1.87-5.21-1.3-1.43-3.08-2.27-5.01-2.36-.12,0-.24,0-.36,0Z"/><path class="cls-7" d="M122.38,75.97c-.21,0-.43-.07-.61-.21-.82-.62-2.79-.37-3.83-.06-.54,.16-1.11-.15-1.27-.69-.16-.54,.15-1.11,.69-1.27,.38-.11,3.73-1.05,5.64,.39,.45,.34,.54,.98,.2,1.43-.2,.27-.51,.41-.81,.41Z"/><path class="cls-7" d="M101.3,76.93c-.32,0-.63-.15-.83-.42-2.12-2.94-11.51-3.42-14.98-3.36-.53,.02-1.03-.44-1.04-1,0-.56,.44-1.03,1-1.04,1.37-.02,13.54-.12,16.67,4.2,.33,.46,.23,1.09-.23,1.42-.18,.13-.39,.19-.6,.19Z"/><path class="cls-3" d="M101.71,168.76c.41,10.2,.35,19.58,.18,26.27-.63,.04-1.26,.04-1.9,.04-7.67,0-15.15-.92-22.29-2.63-19.54-4.69-36.73-15.42-49.47-30.1-1.94-2.24-3.79-4.57-5.53-6.97,34.28-41.78,67.52-42.93,67.52-42.93,.14,.2,.29,.41,.41,.63,.96,1.47,1.81,3.1,2.61,4.89,5.63,12.66,7.77,32.95,8.46,50.8Z"/><path d="M117.42,93.09c-2.92,0-5.33-2.28-5.46-2.4-.4-.39-.42-1.03-.03-1.44,.39-.4,1.03-.42,1.44-.03,.03,.03,2.89,2.72,5.47,1.51,.51-.24,1.12-.02,1.36,.49,.24,.51,.02,1.12-.49,1.36-.78,.37-1.55,.51-2.3,.51Z"/></svg>