<?xml version="1.0" encoding="UTF-8"?><svg id="_이어_1" xmlns="http://www.w3.org/2000/svg" viewBox="0 0 200 200"><defs><style>.cls-1{fill:#e56445;}.cls-2{fill:#fff;}.cls-3{fill:#edddd6;}.cls-4{fill:#fcb35b;}.cls-5{fill:#fca397;}.cls-6{fill:#5f8457;}</style></defs><path class="cls-3" d="M195.08,100.01c0,15.91-3.9,30.89-10.83,44.07-.06,.14-.12,.27-.2,.41-.39,.73-.77,1.45-1.2,2.16-10.67,18.94-27.65,33.85-48.11,41.87-1.26,.49-2.55,.96-3.83,1.41-1.16,.41-2.32,.8-3.49,1.14-1.2,.37-2.41,.69-3.61,1-7.61,1.98-15.6,3.02-23.82,3.02-3.55,0-7.06-.2-10.5-.59-4.22-.45-8.38-1.2-12.42-2.2-2.98-.73-5.87-1.61-8.73-2.63-.47-.16-.96-.33-1.43-.51-1.1-.41-2.18-.84-3.26-1.28-2.83-1.16-5.59-2.45-8.26-3.9-1.14-.61-2.26-1.24-3.39-1.9-.29-.16-.57-.33-.86-.51-2.22-1.33-4.36-2.73-6.44-4.22-1.26-.9-2.51-1.84-3.71-2.79-5.89-4.65-11.22-9.99-15.85-15.91-.65-.84-1.31-1.69-1.94-2.57-1.14-1.57-2.24-3.16-3.3-4.81-9.5-14.78-14.99-32.36-14.99-51.25C4.92,47.5,47.5,4.92,99.99,4.92s95.09,42.58,95.09,95.09Z"/><path class="cls-6" d="M133.7,175.81l-2,.86-6.18,2.59-36.03,15.23c-4.22-.45-8.38-1.2-12.42-2.2-2.98-.73-5.87-1.61-8.73-2.63-.47-.16-.96-.33-1.43-.51-1.1-.41-2.18-.84-3.26-1.28-2.83-1.16-5.59-2.45-8.26-3.9-1.14-.61-2.26-1.24-3.39-1.9-.29-.16-.57-.33-.86-.51-2.22-1.33-4.36-2.73-6.44-4.22-1.26-.9-2.51-1.84-3.71-2.79-5.89-4.65-11.22-9.99-15.85-15.91-.65-.84-1.31-1.69-1.94-2.57,11.91-18.46,34.89-47.9,62.34-51.59,3.92-.53,7.52-.29,10.85,.59,8.1,2.12,14.5,7.97,19.54,15.46,.8,1.14,1.53,2.3,2.22,3.53,12.44,21.19,15.54,51.76,15.54,51.76Z"/><path d="M76.07,61.77s-7.27-21.08-.99-30.36c5.6-8.28,33.13-3.89,42.91,2.47,9.78,6.35,10.11,14.69,10.11,14.69,0,0,4.79,1.27,5.91,5.39,1.11,4.12-2.45,10.9-2.45,10.9,0,0-4.86-6.16-11.81-2.24-6.95,3.93-43.67-.85-43.67-.85Z"/><path class="cls-2" d="M134.74,188.51c-1.26,.49-2.55,.96-3.83,1.41-1.16,.41-2.32,.8-3.49,1.14-1.2,.37-2.41,.69-3.61,1-7.61,1.98-15.6,3.02-23.82,3.02-3.55,0-7.06-.2-10.5-.59-4.22-.45-8.38-1.2-12.42-2.2-2.98-.73-5.87-1.61-8.73-2.63-.47-.16-.96-.33-1.43-.51-1.1-.41-2.18-.84-3.26-1.28-2.83-1.16-5.59-2.45-8.26-3.9,1.2-11.13,2.28-18.64,2.28-18.64l27.88-60.85,10.85,.59s17.11,.92,17.11,.92c.02,.06,.04,.12,.04,.18,.02,.06,4.61,17.88,4.61,17.88l13.54,52.61,3.04,11.85Z"/><path class="cls-5" d="M113.04,94.65l.67,16.05s-5.87,5.37-13.61,5.76c-10.46,.53-14.41-7.38-14.41-7.38l-.55-18.83,27.91,4.39Z"/><path d="M113.04,94.62s-2.84,14.4-14.78,13.03c-9.62-1.11-13.03-15.68-13.03-15.68l27.81,2.66Z"/><path class="cls-5" d="M79.07,49.99s-4.58,28.91,5.23,42.35c9.8,13.44,21.8,8.99,27.1,4.63,7.15-5.89,8.39-13.77,8.39-13.77,0,0,10.16,1.67,13.24-6.67,3.24-8.76-3.27-15.52-8.33-15.76-5.06-.24-5.62,.7-5.62,.7l1.17-9.28s-31.82-33.06-41.18-2.19Z"/><path class="cls-5" d="M84.38,63.29s-15.51-6.01-16.3,5.87c-.92,13.76,15.48,13.34,15.48,13.34l.82-19.21Z"/><path d="M121.58,62.29s-5.26,2.4-16.79-5.45c-11.53-7.85-8.59-17.68-8.59-17.68,0,0-15.07,10.15-18.11,22.32-3.05,12.17-5.91-28.16,11.58-27.96,17.5,.2,44.02,10.7,31.91,28.77Z"/><path class="cls-6" d="M85.55,104.48s-10.01,28.79-17.17,84.81c-.02,.12-.04,.24-.04,.37-.47-.16-.96-.33-1.43-.51-1.1-.41-2.18-.84-3.26-1.28-2.83-1.16-5.59-2.45-8.26-3.9-1.14-.61-2.26-1.24-3.39-1.9-.29-.16-.57-.33-.86-.51-2.22-1.33-4.36-2.73-6.44-4.22,.51-7.28,.84-11.81,.84-11.81l40.01-61.06Z"/><path class="cls-6" d="M184.25,144.08c-.06,.14-.12,.27-.2,.41-.39,.73-.77,1.45-1.2,2.16-10.67,18.94-27.65,33.85-48.11,41.87-1.26,.49-2.55,.96-3.83,1.41-1.16,.41-2.32,.8-3.49,1.14-.57-3.61-1.2-7.59-1.9-11.81-2.83-17.52-6.38-39.42-9.58-58.73-.82-4.98-1.61-9.79-2.37-14.3-.02-.12-.04-.18-.06-.24-.08-.61-.18-1.2-.29-1.79,0,0,39.34-3.1,69.66,37.97,.47,.63,.92,1.26,1.37,1.92Z"/><path d="M121.22,76.24c-.23,0-.47-.08-.66-.24-.43-.37-.48-1.01-.12-1.44l6.6-7.74c.37-.43,1.01-.48,1.44-.12,.43,.37,.48,1.01,.12,1.44l-6.6,7.74c-.2,.24-.49,.36-.78,.36Z"/><path d="M128.5,73.89s-.07,0-.1,0l-4.86-.49c-.56-.06-.97-.56-.91-1.12,.06-.56,.6-.97,1.12-.91l4.86,.49c.56,.06,.97,.56,.91,1.12-.05,.53-.5,.92-1.01,.92Z"/><path d="M105.67,66.76c-.56,0-1.01-.45-1.02-1.01l-.06-4.83c0-.56,.44-1.03,1.01-1.03,.57,0,1.03,.45,1.03,1.01l.06,4.83c0,.56-.44,1.03-1.01,1.03h-.01Z"/><path d="M87.7,67.67c-.57,0-1.03-.47-1.02-1.03l.05-4.83c0-.56,.46-1.01,1.02-1.01,.57,0,1.03,.47,1.02,1.03l-.05,4.83c0,.56-.46,1.01-1.02,1.01Z"/><path d="M77.27,75.74c-.32,0-.63-.15-.83-.42l-5.63-7.81c-.33-.46-.23-1.09,.23-1.42,.45-.33,1.09-.23,1.42,.23l5.63,7.81c.33,.46,.23,1.09-.23,1.42-.18,.13-.39,.19-.6,.19Z"/><path d="M70.82,73.61c-.5,0-.94-.37-1.01-.88-.08-.56,.31-1.07,.87-1.15l4.47-.6c.54-.1,1.07,.31,1.15,.87,.08,.56-.31,1.07-.87,1.15l-4.47,.6s-.09,0-.14,0Z"/><path d="M96.88,81.46c-.32,0-.63-.15-.83-.43-4.08-5.75-.87-13.24-.73-13.55,.22-.51,.82-.75,1.34-.52,.52,.23,.75,.83,.53,1.34-.03,.07-2.87,6.76,.53,11.55,.32,.46,.22,1.1-.24,1.42-.18,.13-.38,.19-.59,.19Z"/><path d="M103.66,87.38c-1.61,0-3.1-.87-3.32-1.01-.29-.18-.47-.49-.49-.82-.02-.34,.14-.66,.41-.86l5.59-4.16c.3-.22,.7-.26,1.04-.1,.34,.16,.57,.49,.58,.87,.15,2.86-.51,4.75-1.96,5.61-.59,.35-1.23,.48-1.85,.48Zm-.73-2.14c.55,.13,1.13,.16,1.55-.1,.44-.26,.73-.85,.88-1.71l-2.43,1.81Z"/><path d="M84.83,58.11c-.36,0-.71-.19-.9-.54-.27-.5-.08-1.11,.41-1.38l4.12-2.22c.49-.26,1.11-.08,1.38,.41,.27,.5,.08,1.11-.41,1.38l-4.12,2.22c-.15,.08-.32,.12-.48,.12Z"/><path d="M107.26,57.68c-.12,0-.25-.02-.37-.07l-6.16-2.41c-.53-.21-.78-.8-.58-1.32,.21-.53,.79-.79,1.32-.58l6.16,2.41c.53,.21,.78,.8,.58,1.32-.16,.4-.54,.65-.95,.65Z"/><path class="cls-1" d="M99.66,118.11c-.7,0-1.4-.05-2.1-.14-7.99-1.09-12.55-8.04-12.74-8.33-.3-.47-.17-1.1,.3-1.41,.47-.3,1.1-.17,1.41,.3,.04,.07,4.26,6.46,11.32,7.42,4.84,.67,9.95-1.37,15.17-6.01,.42-.37,1.06-.34,1.44,.09,.37,.42,.34,1.07-.09,1.44-4.96,4.42-9.91,6.65-14.72,6.65Z"/><path class="cls-4" d="M109.44,16.4s-1.67-5.18,3.74-3.8c5.41,1.37,4.08,7.02,1.07,6.75-3.01-.27-4.8-2.95-4.8-2.95Z"/><path class="cls-4" d="M70.62,36.31s3.42-22.36,32.3-21.98c28.88,.38,28.94,36.29,28.94,36.29l-15.98-3.68-45.27-10.63Z"/><path class="cls-6" d="M67.57,42.36s-3.02-4.52,.97-6.18c3.21-1.33,10.42-.95,31.12,4.93,9.38,2.67,17.76,6.19,17.76,6.19,0,0-29.89-6.54-41.21-4.61-4.35,.74-3.27,5.41-3.27,5.41l-5.37-5.75Z"/></svg>