<?xml version="1.0" encoding="UTF-8"?><svg id="_이어_1" xmlns="http://www.w3.org/2000/svg" viewBox="0 0 200 200"><defs><style>.cls-1{fill:#edddd6;}.cls-2{fill:#fcb35b;}.cls-3{fill:#fca397;}.cls-4{fill:#7772d3;}.cls-5{fill:#7c6053;}</style></defs><path class="cls-1" d="M195.07,100c0,9.93-1.51,19.52-4.34,28.51-4.32,13.74-11.66,26.14-21.27,36.4-.2,.24-.41,.47-.63,.69l-.24,.24c-.2,.22-.43,.45-.63,.65-5.71,5.83-12.17,10.95-19.25,15.15-14.23,8.52-30.89,13.42-48.7,13.42-3.63,0-7.24-.2-10.77-.59-.49-.04-.96-.1-1.43-.16-.04-.02-.06-.02-.1-.02-4.51-.59-8.91-1.49-13.19-2.69-5.04-1.39-9.91-3.2-14.56-5.36-.71-.33-1.43-.67-2.14-1.02-4.59-2.26-8.95-4.89-13.05-7.85-4.12-2.94-7.99-6.2-11.58-9.77-3.85-3.79-7.38-7.95-10.52-12.36-.77-1.1-1.55-2.2-2.28-3.34-1.84-2.77-3.51-5.65-5.02-8.61-6.67-12.99-10.42-27.69-10.42-43.29C4.93,47.49,47.49,4.93,100,4.93s95.07,42.56,95.07,95.07Z"/><path d="M79.52,56.58s-32.41,12.4-34.07,49.08c-2.39,53.03,61.16,40.73,61.16,40.73,0,0,35.99,3.73,45.95-22.8s-22.05-42.55-22.05-42.55c0,0-38.8-34.17-50.99-24.47Z"/><path class="cls-5" d="M168.58,165.85c-.2,.22-.43,.45-.63,.65-5.44,5.55-11.56,10.46-18.25,14.54-.33,.2-.67,.41-1,.61-.43,.27-.88,.53-1.33,.77-13.93,8.06-30.12,12.64-47.37,12.64-3.63,0-7.24-.2-10.77-.59-.49-.04-.96-.1-1.43-.16-.04-.02-.06-.02-.1-.02-4.51-.59-8.91-1.49-13.19-2.69-5.04-1.39-9.91-3.2-14.56-5.36-.71-.33-1.43-.67-2.14-1.02-4.59-2.26-8.95-4.89-13.05-7.85-4.12-2.94-7.99-6.2-11.58-9.77,6.89-19.07,24.53-54.61,61.52-60.4,.08,0,.16-.02,.24-.04,2.47-.37,5.04-.61,7.69-.71,41.72-1.53,59.4,37.77,65.95,59.4Z"/><path class="cls-5" d="M148.7,181.65c-14.23,8.52-30.89,13.42-48.7,13.42-3.63,0-7.24-.2-10.77-.59-.49-.04-.96-.1-1.43-.16-.04-.02-.06-.02-.1-.02-4.51-.59-8.91-1.49-13.19-2.69-5.04-1.39-9.91-3.2-14.56-5.36-.71-.33-1.43-.67-2.14-1.02-4.59-2.26-8.95-4.89-13.05-7.85-.18-14.01-.29-25.06-.29-25.06l36.22-26.88,17.78-13.19c.22,0,.45,0,.67,.02,9.79,.2,18.05,2.2,24.55,4.61,1.04,.41,2.04,.8,3,1.2,9.03,3.83,13.93,8.14,13.93,8.14,0,0,4.24,28.1,8.08,55.45Z"/><path class="cls-3" d="M122.62,116.99s-3.04,2.43-11.89,2.06c-11.89-.49-15.7-6.93-15.7-6.93l-.59-22.8v-.22l3.61,.71,22.66,4.22,.88,10.44,1.04,12.52Z"/><path d="M121.58,104.47c-6.08-.55-21.8-4.22-26.76-14.23-.14-.33-.29-.63-.39-.92-.16-.41-.27-.8-.31-1.12l26.57,5.83,.88,10.44Z"/><path class="cls-3" d="M123.65,45.14s12.22,26.37,8.35,41.42c-3.87,15.05-17.55,12.99-25.76,10.28-8.22-2.71-12.11-7.63-12.11-7.63,0,0-7.56,2.75-12.81-4.22-5.25-6.97-2.29-15.18,2.02-17.13,4.31-1.96,9.55,1.07,9.55,1.07l-4.22-7.65s16.2-39.7,34.99-16.13Z"/><path d="M127.59,56.1s-.1,0-.15-.01l-5.21-.77c-.56-.08-.94-.6-.86-1.16,.08-.56,.6-.93,1.16-.86l5.21,.77c.56,.08,.94,.6,.86,1.16-.07,.51-.51,.87-1.01,.87Z"/><path d="M108.15,58.25c-.4,0-.78-.23-.94-.62-.22-.52,.03-1.12,.54-1.34l6.05-2.54c.52-.22,1.12,.03,1.34,.54,.22,.52-.03,1.12-.54,1.34l-6.05,2.54c-.13,.05-.26,.08-.4,.08Z"/><path d="M123.49,77.73s-.07,0-.1,0c-.56-.06-.97-.56-.91-1.12,.84-8.23-2.57-12.38-2.61-12.42-.36-.43-.31-1.07,.12-1.44,.43-.36,1.07-.32,1.43,.11,.16,.19,4.02,4.78,3.09,13.95-.05,.53-.5,.92-1.01,.92Z"/><path d="M115.17,86.64c-.4,0-.82-.05-1.26-.18-3.37-.96-3.75-4.82-3.76-4.99-.03-.33,.1-.65,.36-.87,.25-.22,.59-.29,.92-.21l7.91,2.05c.33,.09,.6,.33,.71,.65,.11,.32,.06,.68-.15,.95-.09,.12-2,2.59-4.72,2.59Zm-2.55-3.83c.33,.69,.89,1.41,1.85,1.69,.96,.27,1.86-.09,2.54-.55l-4.4-1.14Z"/><path d="M92.92,79.92c-.14,0-.28-.03-.42-.09l-10.74-4.88c-.51-.23-.74-.84-.51-1.35,.23-.51,.83-.74,1.35-.51l10.74,4.88c.51,.23,.74,.84,.51,1.35-.17,.38-.54,.6-.93,.6Z"/><path d="M83.35,82.41c-.26,0-.53-.1-.72-.3-.4-.4-.39-1.05,0-1.44l4.73-4.68c.4-.4,1.05-.39,1.44,0,.4,.4,.39,1.05,0,1.44l-4.73,4.68c-.2,.2-.46,.29-.72,.29Z"/><path d="M108.15,46.69s6.11-.93,12.49,2.93c6.38,3.86,7.69,7.61,7.69,7.61,0,0,3.95-9.96-4.7-18.74-8.65-8.79-25.24-11.22-34.81-.83-9.57,10.39-8.98,19.57-8.98,19.57l13.04,11.69s20.14-3.88,15.26-22.23Z"/><path d="M86.49,42.13s-12.31-23.37-24.78-13.5c-12.47,9.88,1.42,29.81,13.81,31.27,12.39,1.45,10.97-17.77,10.97-17.77Z"/><path class="cls-5" d="M89.23,194.48c-.49-.04-.96-.1-1.43-.16-.04-.02-.06-.02-.1-.02-4.51-.59-8.91-1.49-13.19-2.69l6.18-66.17,.2-2.1,13.81-16.13,.16-.18s.02,.04,.08,.14c.35,.55,1.77,2.75,4.2,5.1,4.65,4.51,13.01,9.58,24.51,4.63,1.9-.82,2.83-.33,3.04,1.18,1.06,8.32-20.92,47.98-37.46,76.41Z"/><path class="cls-2" d="M149.7,181.04c-.33,.2-.67,.41-1,.61-.43,.27-.88,.53-1.33,.77,4.43-23.1-4.63-36.34-4.73-36.48-.33-.47-.24-1.14,.2-1.49,.47-.35,1.1-.24,1.43,.22,.41,.57,9.26,13.42,5.42,36.36Z"/><path class="cls-2" d="M114.16,119.93c-13.3,0-20.11-12.27-20.19-12.42-.27-.49-.08-1.11,.41-1.38,.49-.27,1.11-.09,1.38,.41,.38,.69,9.42,16.89,27.51,9.4,.52-.22,1.12,.03,1.33,.55,.22,.52-.03,1.12-.55,1.33-3.62,1.5-6.92,2.11-9.89,2.11Z"/><circle class="cls-4" cx="91.75" cy="88.19" r="2.84"/><path d="M111.17,69.23c-.56,0-1.02-.46-1.02-1.02v-4.68c0-.27,.11-.52,.29-.72l2.07-2.1c.39-.4,1.04-.41,1.44-.01,.4,.4,.41,1.04,0,1.44l-1.78,1.81v4.26c0,.56-.46,1.02-1.02,1.02Z"/><path d="M126.56,69.23c-.56,0-1.02-.46-1.02-1.02v-4.68c0-.27,.11-.52,.29-.72l2.07-2.1c.4-.4,1.04-.41,1.44-.01,.4,.4,.41,1.04,0,1.44l-1.78,1.81v4.26c0,.56-.46,1.02-1.02,1.02Z"/></svg>