<?xml version="1.0" encoding="UTF-8"?><svg id="_이어_1" xmlns="http://www.w3.org/2000/svg" viewBox="0 0 200 200"><defs><style>.cls-1{fill:#f7dcdc;}.cls-2{fill:#f7734f;}.cls-3{fill:#fca397;}.cls-4{fill:#7772d3;}</style></defs><path class="cls-1" d="M195.07,96.58c0,17.35-4.65,33.63-12.79,47.64-.31,.53-.63,1.06-.96,1.59-.75,1.26-1.55,2.53-2.39,3.75-.35,.51-.69,1.02-1.08,1.53-12.4,17.76-30.75,31.02-52.12,37.03-.45,.12-.92,.24-1.37,.37-7.77,2.06-15.95,3.16-24.37,3.16-32.85,0-61.83-16.66-78.86-42.01-1.61-2.35-3.1-4.79-4.47-7.28-7.48-13.58-11.75-29.18-11.75-45.78C4.93,44.07,47.49,1.51,100,1.51s95.07,42.56,95.07,95.07Z"/><path d="M59.25,83.62s-10.19-54.04,29.36-63.93c39.54-9.89,41.92,46.23,41.92,46.23,0,0,43.03,8.19,43.31,50.03,.35,52.3-50.2,43.51-50.2,43.51l-47.87-19.5s-47.95-26.11-16.52-56.34Z"/><path class="cls-2" d="M177.86,151.09c-12.4,17.76-30.75,31.02-52.12,37.03-.45,.12-.92,.24-1.37,.37-7.77,2.06-15.95,3.16-24.37,3.16-32.85,0-61.83-16.66-78.86-42.01,12.77-17.46,28.77-30.67,39.66-35.36,16.11-6.93,41.66-11.58,65.26-4.83,.06,.02,.14,.02,.22,.04,7.1,2.04,13.99,5.1,20.41,9.44,13.89,9.38,24,20.27,31.16,32.16Z"/><path class="cls-3" d="M81.33,93.04v.58l.49,10.89,.35,8.54s-.73,1.99,9.21,1.34c13.32-.91,17.62-6.64,17.62-6.64l.57-20.02-4.04,.77-24.19,4.54Z"/><path d="M81.33,93.62l.49,10.89c6.47-.79,18.25-3.59,23.01-13.77,.37-.83,.61-1.57,.69-2.19l-24.15,4.91-.04,.17Z"/><path class="cls-3" d="M77.11,41.5s-12.39,28.35-7.93,44.28c4.46,15.93,18.98,13.42,27.66,10.34,8.68-3.08,12.71-8.4,12.71-8.4,0,0,8.11,2.75,13.54-4.79,5.43-7.54,2.09-16.21-2.55-18.19-4.63-1.98-10.14,1.36-10.14,1.36l4.32-8.24s-18.16-41.88-37.62-16.36Z"/><path d="M80.95,37.3s-.9,15.09,14.28,21.94c15.18,6.86,25.32,5.5,25.32,5.5l-.99-19.67-19-20.64-16.98,5.41-2.63,7.46Z"/><polygon points="109.38 61.74 109.44 70.33 117.08 62.8 109.38 61.74"/><path class="cls-2" d="M181.33,145.81c-.75,1.26-1.55,2.53-2.39,3.75-.35,.51-.69,1.02-1.08,1.53-12.4,17.76-30.75,31.02-52.12,37.03-.45,.12-.92,.24-1.37,.37l1.31-79.1s.14,.02,.39,.06c.06,.02,.14,.02,.22,.04,4.69,.8,35.42,6.87,51.92,31.06,1.12,1.61,2.14,3.39,3.12,5.26Z"/><path class="cls-4" d="M88.51,115.56c-6,0-10.48-1.07-10.85-1.16-.55-.14-.88-.69-.74-1.23,.14-.55,.69-.88,1.23-.75,.18,.05,18.15,4.33,30.49-4.66,.45-.33,1.09-.23,1.42,.22,.33,.45,.23,1.09-.22,1.42-6.77,4.93-14.92,6.16-21.33,6.16Z"/><path d="M73.58,51.85c-.43,0-.84-.28-.97-.71-.17-.54,.13-1.11,.67-1.28l5.65-1.77c.54-.17,1.11,.13,1.28,.67,.17,.54-.13,1.11-.67,1.28l-5.65,1.77c-.1,.03-.2,.05-.3,.05Z"/><path d="M110.99,79.33c-.27,0-.55-.11-.75-.33-.38-.41-.35-1.06,.06-1.44l8.74-8.04c.41-.38,1.06-.35,1.44,.06,.38,.41,.35,1.06-.06,1.44l-8.74,8.04c-.2,.18-.44,.27-.69,.27Z"/><path d="M119.84,78.27c-.14,0-.28-.03-.41-.09l-5.22-2.29c-.51-.23-.75-.83-.52-1.34,.23-.51,.83-.75,1.34-.52l5.22,2.29c.51,.23,.75,.83,.52,1.34-.17,.38-.54,.61-.93,.61Z"/><path d="M75.33,66.15c-.07,0-.14,0-.21-.02-.55-.11-.91-.65-.79-1.21l1.04-5.02-2.05-2.36c-.37-.43-.32-1.07,.1-1.44,.43-.37,1.07-.32,1.44,.1l2.38,2.74c.21,.24,.29,.56,.23,.88l-1.14,5.51c-.1,.48-.52,.81-1,.81Z"/><path d="M92.43,67.02c-.07,0-.14,0-.21-.02-.55-.11-.91-.65-.79-1.21l1.04-5.02-2.05-2.36c-.37-.43-.32-1.07,.1-1.44,.42-.37,1.07-.32,1.44,.1l2.38,2.74c.21,.24,.29,.56,.23,.88l-1.14,5.51c-.1,.48-.52,.81-1,.81Z"/><path d="M78.71,78.6c-.47,0-.9-.33-1-.81-1.9-9.07,2.49-13.63,2.68-13.82,.4-.4,1.04-.41,1.44,0,.4,.39,.4,1.04,.01,1.44-.17,.18-3.79,4.05-2.14,11.97,.12,.55-.24,1.09-.79,1.21-.07,.02-.14,.02-.21,.02Z"/><path d="M87.93,87.33c-.6,0-2.05-.28-5.08-3.63-.35-.39-.48-.91-.34-1.4,.14-.51,.55-.91,1.08-1.07,7.28-2.18,8.26-1.43,8.69-1.11,.36,.27,.91,.93,.51,2.29-.55,1.86-2.87,4.8-4.68,4.92-.05,0-.11,0-.18,0Zm-2.99-4.37c1.64,1.7,2.8,2.31,3.03,2.33,.18-.02,.86-.42,1.7-1.46,.72-.91,1.09-1.7,1.19-2.1-.6,.05-2.38,.21-5.92,1.23Z"/><path class="cls-4" d="M53.95,145.36c-.1,.12-9.84,10.56-8,29.34-.59-.38-1.15-.77-1.71-1.19-.16-.1-.3-.23-.46-.35-1.2-18.64,8.58-29.06,8.71-29.2,.39-.4,1.03-.41,1.45-.04,.4,.39,.41,1.05,.02,1.45Z"/></svg>