<?xml version="1.0" encoding="UTF-8"?><svg id="_이어_1" xmlns="http://www.w3.org/2000/svg" viewBox="0 0 200 200"><defs><style>.cls-1{fill:#e56445;}.cls-2{fill:#fff;}.cls-3{fill:#fcb35b;}.cls-4{fill:#fca397;}.cls-5{fill:#def0ff;}</style></defs><path class="cls-5" d="M195.08,100c0,18.84-5.49,36.42-14.95,51.19-2.02,3.16-4.22,6.2-6.61,9.1-.27,.35-.53,.67-.82,1-1.75,2.08-3.61,4.1-5.53,6.02-3.1,3.1-6.42,6-9.95,8.63-.1,.08-.2,.14-.31,.22-.73,.57-1.49,1.1-2.24,1.63-.9,.65-1.81,1.26-2.75,1.88-.2,.14-.41,.27-.63,.39-2.57,1.67-5.24,3.22-7.99,4.61-.63,.33-1.26,.65-1.92,.96-2.96,1.43-6,2.71-9.1,3.83-4.12,1.49-8.36,2.71-12.73,3.61-6.32,1.33-12.85,2.02-19.56,2.02-1.33,0-2.67-.02-4-.08-1.53-.06-3.04-.16-4.55-.31-.1,0-.18-.02-.29-.02-2.83-.27-5.65-.65-8.4-1.18-1.59-.29-3.16-.61-4.71-.98-4.53-1.06-8.91-2.45-13.15-4.16-3.69-1.45-7.26-3.14-10.73-5.06-.08-.04-.14-.08-.22-.12-.41-.22-.82-.45-1.2-.69-1.24-.69-2.49-1.43-3.69-2.2-1.12-.69-2.2-1.43-3.28-2.18-1.94-1.33-3.83-2.75-5.67-4.26-.22-.16-.43-.33-.65-.51-2.59-2.16-5.08-4.45-7.44-6.85-.67-.67-1.33-1.37-1.96-2.06-1.51-1.61-2.96-3.3-4.3-5.02-.31-.37-.59-.71-.88-1.08-.04-.04-.06-.08-.08-.12-1.59-2.04-3.08-4.14-4.49-6.3-9.73-14.93-15.4-32.73-15.4-51.88C4.92,47.49,47.5,4.93,100.01,4.93s95.07,42.56,95.07,95.07Z"/><path class="cls-1" d="M142.63,119.96s-1.74-94-34.99-97.39c-33.25-3.39-37.19,19.98-37.19,19.98,0,0-8.29,2.95-9.97,15.59-1.68,12.64-2.46,63.05-2.46,63.05l75.08,4.3,9.52-5.53Z"/><path class="cls-3" d="M177.28,154.47c-1.18,1.98-2.43,3.92-3.75,5.81-.27,.35-.53,.67-.82,1-1.75,2.08-3.61,4.1-5.53,6.02-3.1,3.1-6.42,6-9.95,8.63-1.71,1.31-3.49,2.55-5.3,3.73-.2,.14-.41,.27-.63,.39-2.57,1.67-5.24,3.22-7.99,4.61-.63,.33-1.26,.65-1.92,.96-2.96,1.43-6,2.71-9.1,3.83-4.12,1.49-8.36,2.71-12.73,3.61-6.32,1.33-12.85,2.02-19.56,2.02-1.33,0-2.67-.02-4-.08-1.53-.06-3.04-.16-4.55-.31-.1,0-.18-.02-.29-.02-2.83-.27-5.65-.65-8.4-1.18-1.59-.29-3.16-.61-4.71-.98-4.53-1.06-8.91-2.45-13.15-4.16-3.69-1.45-7.26-3.14-10.73-5.06-.08-.04-.14-.08-.22-.12-.41-.22-.82-.45-1.2-.69-1.24-.69-2.49-1.43-3.69-2.2-6.36-25.12-8.91-47.9-1.04-57.14,.39-.51,.86-.98,1.35-1.41,1.86-1.59,3.83-3.04,5.89-4.4,.08-.04,.14-.08,.2-.12,3.43-2.22,7.12-4.14,10.99-5.77,.04-.04,.1-.06,.12-.06,24.96-10.4,57.14-8.67,74.68-1.35,11.28,4.71,25.16,25.41,36.01,44.46Z"/><path class="cls-4" d="M84.63,86.29v23.09s4.16,6.64,17.67,7.74c10.06,.82,13.25-4.35,13.25-4.35l-2.44-20.2-24.39-5.37-4.09-.91Z"/><path d="M84.66,84.88c.06,.63,.3,1.37,.67,2.23,5.17,11.53,23.34,16.33,29.16,16.85l-1.38-11.4-28.44-7.68Z"/><path class="cls-2" d="M157.99,166.68l-1.06,9.46c-.73,.57-1.49,1.1-2.24,1.63l1.28-11.32c1.59-14.23-5.49-31.87-5.57-32.06-.2-.53,.04-1.12,.57-1.33,.53-.22,1.1,.04,1.33,.55,.29,.75,7.34,18.31,5.69,33.06Z"/><path class="cls-4" d="M118.26,39.94s12.12,28.95,7.34,45.03c-4.78,16.08-19.45,13.31-28.21,10.05-8.76-3.26-12.76-8.72-12.76-8.72,0,0-8.27,2.66-13.65-5.07-5.38-7.73-1.86-16.47,2.87-18.4,4.73-1.94,10.26,1.54,10.26,1.54l-4.25-8.42s19.08-42.18,38.4-15.99Z"/><path d="M116.38,76.55c-.11,0-.22-.02-.32-.05-.53-.18-.82-.76-.65-1.29,1.73-5.19-2.07-10.97-2.1-11.03-.31-.47-.19-1.1,.28-1.41,.47-.32,1.1-.19,1.41,.28,.18,.27,4.4,6.66,2.35,12.81-.14,.43-.54,.7-.97,.7Z"/><path d="M82.6,77.92c-.28,0-.56-.11-.76-.34l-7.63-8.45c-.38-.42-.34-1.06,.07-1.44,.42-.38,1.06-.34,1.44,.07l7.63,8.45c.38,.42,.34,1.06-.07,1.44-.2,.18-.44,.26-.68,.26Z"/><path d="M74.38,75.51c-.5,0-.94-.38-1.01-.89-.07-.56,.32-1.07,.88-1.14l5.42-.7c.54-.07,1.07,.32,1.14,.88,.07,.56-.32,1.07-.88,1.14l-5.42,.7s-.09,0-.13,0Z"/><path d="M122.51,53.15c-.07,0-.13,0-.2-.02l-5.08-1.02c-.55-.11-.91-.65-.8-1.2,.11-.55,.66-.91,1.2-.8l5.08,1.02c.55,.11,.91,.65,.8,1.2-.1,.48-.52,.82-1,.82Z"/><path d="M101.2,55.97c-.38,0-.75-.22-.92-.58-.24-.51-.03-1.12,.48-1.36l6.81-3.24c.51-.24,1.12-.03,1.36,.48,.24,.51,.03,1.12-.48,1.36l-6.81,3.24c-.14,.07-.29,.1-.44,.1Z"/><path d="M120.17,64.95c-.45,0-.86-.29-.98-.74l-1.46-5.23c-.09-.33-.01-.68,.21-.94l1.64-1.91c.37-.43,1.01-.47,1.44-.11,.43,.37,.48,1.01,.11,1.44l-1.28,1.5,1.31,4.7c.15,.54-.17,1.11-.71,1.26-.09,.03-.19,.04-.27,.04Z"/><path d="M103.58,65.98c-.45,0-.86-.29-.98-.74l-1.46-5.23c-.09-.34,0-.7,.22-.96l2.27-2.51c.38-.42,1.02-.45,1.44-.07,.42,.38,.45,1.02,.07,1.44l-1.89,2.1,1.31,4.69c.15,.54-.17,1.11-.71,1.26-.09,.03-.19,.04-.27,.04Z"/><path class="cls-1" d="M126.55,50.22s-7.98-1.59-13.57-1.38l-5.59,.21-2.27-9,.03,9.82s-3.95,.68-7.86,2.72c-3.91,2.04-6.5,4.56-6.5,4.56l-3.71-7.57,1.56,9.53-4.53,5.25-6.84-6.41,4.38-13.28s10.32-14.42,11.12-14.59c.8-.17,15.68-.99,15.68-.99,0,0,12.81,5.01,13.12,5.43,.31,.42,4.99,15.7,4.99,15.7Z"/><path class="cls-2" d="M104.09,117.42c-5.86,0-13.17-1.58-21.01-7-.46-.32-.58-.95-.26-1.42,.32-.47,.95-.58,1.42-.26,17.66,12.2,31.86,4.14,32.46,3.78,.49-.29,1.11-.12,1.4,.36,.28,.48,.13,1.11-.36,1.39-.09,.05-5.47,3.14-13.65,3.14Z"/><path class="cls-3" d="M91.18,194.66c-2.83-.27-5.65-.65-8.4-1.18-1.59-.29-3.16-.61-4.71-.98-4.53-1.06-8.91-2.45-13.15-4.16-3.69-1.45-7.26-3.14-10.73-5.06-.08-.04-.14-.08-.22-.12-.41-.22-.82-.45-1.2-.69-1.24-.69-2.49-1.43-3.69-2.2-1.12-.69-2.2-1.43-3.28-2.18-1.94-1.33-3.83-2.75-5.67-4.26-.22-.16-.43-.33-.65-.51-2.59-2.16-5.08-4.45-7.44-6.85-.67-.67-1.33-1.37-1.96-2.06-1.51-1.61-2.96-3.3-4.3-5.02-.31-.37-.59-.71-.88-1.08-.04-.04-.06-.08-.08-.12,6.71-16.93,15.48-27.98,23.23-35.06,2.57-2.37,5.02-4.26,7.24-5.81,.08-.04,.14-.08,.2-.12,5.79-3.98,10.09-5.51,10.99-5.77,.04-.04,.1-.06,.12-.06,.04,0,24.59,83.3,24.59,83.3Z"/><path d="M113.38,85.35c-2.37,0-5.36-2.45-6.03-3.02-.33-.28-.44-.73-.29-1.14,.15-.4,.56-.66,.97-.66l9.41,.17c.41,0,.77,.25,.92,.63,.16,.38,.07,.81-.21,1.1-.06,.06-1.49,1.53-3.52,2.62-.38,.21-.81,.29-1.26,.29Zm-2.02-2.71c1.01,.54,1.9,.83,2.31,.62,.33-.18,.64-.37,.94-.56l-3.25-.06Z"/></svg>