<?xml version="1.0" encoding="UTF-8"?><svg id="_이어_1" xmlns="http://www.w3.org/2000/svg" viewBox="0 0 200 200"><defs><style>.cls-1{fill:#f27e64;}.cls-2{fill:#f7734f;}.cls-3{fill:#fff4cf;}.cls-4{fill:#fcb35b;}.cls-5{fill:#507849;}</style></defs><path class="cls-3" d="M195.08,100c0,12.77-2.51,24.94-7.08,36.05-3.34,8.14-7.79,15.72-13.15,22.55-12.32,15.72-29.49,27.47-49.27,32.98-8.14,2.28-16.72,3.49-25.57,3.49-3.36,0-6.69-.16-9.97-.51-2.14-.22-4.26-.53-6.36-.9-2.32-.41-4.61-.9-6.87-1.47-.43-.1-.88-.2-1.31-.33-3.63-.96-7.2-2.14-10.64-3.53-6.08-2.41-11.87-5.44-17.25-9.01-1.67-1.1-3.32-2.26-4.91-3.47-3.18-2.41-6.2-5-9.05-7.79-6.79-6.61-12.56-14.21-17.13-22.57-7.38-13.52-11.58-29.02-11.58-45.5C4.92,47.49,47.5,4.93,100.01,4.93s95.07,42.56,95.07,95.07Z"/><path d="M76.59,58.79s-9.1,7.63-9.96,15.29l-.86,7.66s-10.9,3.48-14.2,16.66c-4.47,17.89,7.72,24.11,7.72,24.11l94.7,10.22s11.13-9.75,8.9-25.43c-2.23-15.67-11.4-20.66-11.4-20.66,0,0,1.51-10.08-3.56-20.2-5.85-11.68-17.87-11.8-17.87-11.8l-53.48,4.15Z"/><path class="cls-5" d="M174.85,158.61c-12.32,15.72-29.49,27.47-49.27,32.98-8.14,2.28-16.72,3.49-25.57,3.49-3.36,0-6.69-.16-9.97-.51-2.14-.22-4.26-.53-6.36-.9-2.32-.41-4.61-.9-6.87-1.47-.43-.1-.88-.2-1.31-.33-3.63-.96-7.2-2.14-10.64-3.53-6.08-2.41-11.87-5.44-17.25-9.01,.2-5.08,.55-7.95,.55-7.95l15.36-48.43,1.51-4.77c.9-2.85,2.73-5.24,5.16-6.83,1.24-.84,2.65-1.45,4.16-1.77,2.81-.65,6.32-1.37,10.3-2.04,1.24-.18,2.49-.39,3.81-.57,4.12-.57,8.65-1.02,13.32-1.22,2.81-.12,5.63-.14,8.46-.04,1.26,.04,2.53,.1,3.79,.18,1.47,.12,2.92,.27,4.38,.43,1.63,.2,3.24,.45,4.85,.77,3.67,.69,7.26,1.67,10.67,3,9.03,3.53,16.89,10.79,23.35,18.92,8.24,10.38,14.23,22.21,17.58,29.61Z"/><path class="cls-4" d="M114.31,101.33s6.66,2.18,8.68,5.28c2.26,3.47-1.97,12.62-14.01,19.73-8.8,5.2-16.23,7.03-16.23,7.03,0,0-7.66-10.6-9.13-17.04-1.47-6.44,3.92-14.89,3.92-14.89l26.77-.12Z"/><path d="M79.05,70.7s-8.01-12.23-7.95-18.23c.06-6,20.07-27.14,40.99-21.26,20.92,5.88,26.41,31.22,23.76,42.5-6.83,29.07-32.33,20.38-32.33,20.38,0,0-39.24-5.27-24.47-23.39Z"/><path class="cls-1" d="M87.47,100.92l.07,.53,1.66,9.95,1.27,7.81s-.45,1.91,8.61,.21c12.14-2.33,15.45-8.06,15.45-8.06l-1.71-18.46-3.63,1.16-21.73,6.87Z"/><path d="M87.54,101.45l1.66,9.95c5.86-1.44,16.38-5.33,19.62-15.22,.24-.8,.38-1.51,.39-2.09l-21.64,7.2-.02,.16Z"/><path class="cls-1" d="M77.85,54.02s-8.22,27.44-2.34,41.58c5.88,14.14,18.94,10.22,26.57,6.42,7.64-3.8,10.75-9.14,10.75-9.14,0,0,7.76,1.62,11.91-5.91,4.14-7.54,.11-15.13-4.37-16.43-4.48-1.31-9.17,2.38-9.17,2.38l3.05-8.05s-21.36-36.46-36.4-10.84Z"/><path d="M82.96,87.18c-.39,0-.76-.22-.93-.6-2.47-5.43,.77-11.67,.9-11.93,.26-.5,.88-.69,1.38-.43,.5,.26,.69,.88,.43,1.38-.03,.06-2.9,5.63-.85,10.14,.23,.51,0,1.12-.51,1.35-.14,.06-.28,.09-.42,.09Z"/><path d="M113.76,85.18c-.21,0-.42-.06-.6-.2-.46-.33-.56-.97-.22-1.42l6.11-8.4c.33-.46,.97-.55,1.42-.22,.46,.33,.56,.97,.22,1.42l-6.11,8.4c-.2,.27-.51,.42-.82,.42Z"/><path d="M120.99,82.21s-5.01-.11-5.01-.11c-.56-.01-1.01-.48-1-1.04,.01-.56,.47-1.01,1.04-1l4.99,.11c.56,.01,1.01,.48,1,1.04-.01,.55-.47,1-1.02,1Z"/><path d="M88.89,96.82c-.3,0-.6-.05-.9-.14-2.24-.71-3.54-3.89-3.68-4.25-.19-.5,.03-1.06,.51-1.29l9.75-4.69c.37-.18,.81-.12,1.11,.15,.31,.27,.42,.69,.3,1.08-.09,.26-2.14,6.45-5.26,8.54-.59,.4-1.21,.6-1.83,.6Zm-2.28-4.28c.49,.93,1.24,1.96,1.99,2.2,.22,.07,.52,.1,.99-.2,1.4-.94,2.67-3.22,3.52-5.12l-6.5,3.13Z"/><path d="M96.84,66.08c-.32,0-.64-.15-.84-.44-1.4-2.04-4.44-1-4.47-.99-.54,.19-1.11-.09-1.3-.62-.19-.53,.09-1.11,.62-1.3,.19-.07,4.55-1.56,6.83,1.76,.32,.46,.2,1.1-.26,1.42-.18,.12-.38,.18-.58,.18Z"/><path d="M74.56,65.97c-.24,0-.48-.08-.67-.25-.42-.37-.46-1.01-.09-1.44,.2-.23,2.06-2.27,4.39-2.28,1.18,0,2.25,.52,3.13,1.51,.37,.42,.34,1.07-.08,1.44-.42,.37-1.07,.34-1.44-.08-.5-.56-1.01-.84-1.6-.82-1.2,0-2.48,1.15-2.87,1.59-.2,.23-.48,.34-.76,.34Z"/><path d="M111.19,72.92s-12.11-4.37-17.27-12.03c-5.16-7.66-5.84-11.74-5.84-11.74,0,0-.98,5.58-4.96,7.37-3.98,1.79-6.54,2.27-6.54,2.27l-1.67,7.97-.61-18.41s10.46-7.44,11.96-7.63c1.5-.19,20.9,.78,22.14,1.78,1.24,1,9.11,14.96,9.11,14.96l1.27,6.6-7.6,8.86Z"/><path d="M96.7,72.45c-.39,0-.75-.22-.93-.6-.4-.88-.89-1.36-1.5-1.48-1.2-.24-2.78,.92-3.29,1.39-.41,.38-1.06,.36-1.44-.05-.38-.41-.36-1.05,.05-1.44,.26-.24,2.64-2.38,5.07-1.9,.88,.17,2.11,.77,2.96,2.64,.24,.51,0,1.12-.5,1.35-.14,.06-.28,.09-.42,.09Z"/><path d="M76.34,72.51c-.12,0-.24-.02-.36-.07-.53-.2-.79-.79-.59-1.32,.75-1.97,1.77-3.02,3.03-3.11,2.05-.16,3.47,2.32,3.62,2.6,.28,.49,.1,1.11-.39,1.39-.49,.28-1.11,.1-1.39-.38-.38-.67-1.19-1.64-1.7-1.57-.28,.02-.78,.51-1.27,1.8-.15,.41-.54,.66-.95,.66Z"/><path class="cls-4" d="M113.73,102.64s-12.96,12.22-20.55,12.29-6.53-6.24-6.53-6.24l1.25,14.57,6.71,2.2,16.76-6.76,9.41-10.53-7.05-5.52Z"/><path class="cls-4" d="M100.01,126.19s5.68,7.78,6.84,19.98c1.16,12.2-5.93,25.91-5.93,25.91,0,0-11.36-12.88-12.86-22.6-1.5-9.72,3.7-23.52,3.7-23.52,0,0-5.15,11.71-6.42,18.87-1.27,7.17-3.03,16.38-3.03,16.38,0,0-6.89-9.14-6.48-19.98,.41-10.85,12.06-17.97,12.06-17.97l12.12,2.93Z"/><path class="cls-2" d="M98.56,129.77c-3.13,0-7.17-1.09-7.74-1.25-.07-.02-.11-.04-.15-.05-.23-.1-.42-.29-.52-.53-.69-1.62-4-9.86-1.86-12.82,.42-.57,1.2-1.24,2.66-1.11,1.16,.09,2.07,.64,2.64,1.58,1.7,2.8-.2,8.73-1.13,11.25,2.2,.53,5.95,1.23,7.69,.73,1.83-.53,2.87-6.84,2.14-10.41-.11-.55,.24-1.09,.79-1.2,.54-.12,1.09,.24,1.2,.79,.66,3.22,.23,11.68-3.57,12.78-.61,.18-1.35,.25-2.15,.25Zm-7.94-13.74c-.47,0-.61,.19-.68,.28-.85,1.18-.01,4.99,1.13,8.31,.95-2.97,1.66-6.53,.78-7.98-.23-.37-.56-.56-1.06-.6-.06,0-.12,0-.17,0Z"/><path class="cls-2" d="M98.19,146.3c-.87,0-1.64-.37-2.2-1.07-2.71-3.37-.19-14.99,.1-16.3,.1-.44,.48-.76,.93-.79,.43-.05,.87,.24,1.02,.67,.79,2.16,4.59,13.1,2.28,16.4-.5,.71-1.23,1.1-2.12,1.1h-.01Zm-.83-13.05c-.67,4.3-.97,9.22,.22,10.7,.18,.22,.36,.31,.61,.31s.36-.08,.46-.23c.96-1.38,.01-6.32-1.3-10.79Z"/><path class="cls-5" d="M76.8,192.2c-.43-.1-.88-.2-1.31-.33-3.63-.96-7.2-2.14-10.64-3.53-6.08-2.41-11.87-5.44-17.25-9.01-1.67-1.1-3.32-2.26-4.91-3.47-3.18-2.41-6.2-5-9.05-7.79,.04-.27,.1-.53,.16-.8,5.2-23.53,15.07-38.01,23.23-46.41,7.38-7.59,14.45-10.28,14.45-10.28-.08,.24-1.22,.49-1.3,.75-.8,2.94-1.16,7.12-1.18,12.19-.06,17.52,3.94,45.58,7.81,68.66Z"/></svg>