<?xml version="1.0" encoding="UTF-8"?><svg id="_이어_1" xmlns="http://www.w3.org/2000/svg" viewBox="0 0 200 200"><defs><style>.cls-1{fill:#e56445;}.cls-2{fill:#fcb35b;}.cls-3{fill:#fca397;}.cls-4{fill:#def0ff;}.cls-5{fill:#7772d3;}</style></defs><path class="cls-4" d="M195.07,100c0,8.44-1.1,16.64-3.18,24.43-4.85,18.29-15.01,34.42-28.75,46.62-4.22,3.79-8.81,7.2-13.68,10.16-1.67,1.02-3.36,2-5.1,2.92-13.23,6.99-28.35,10.95-44.35,10.95-5.26,0-10.42-.43-15.46-1.26-3.61-.57-7.14-1.37-10.6-2.35-14.23-4.06-27.1-11.32-37.77-21-3.49-3.14-6.75-6.57-9.73-10.2-13.44-16.42-21.51-37.4-21.51-60.26C4.93,47.49,47.49,4.93,100,4.93s95.07,42.56,95.07,95.07Z"/><path class="cls-1" d="M59.43,74.07c0,7.84,6.35,14.19,14.19,14.19s14.19-6.35,14.19-14.19-6.35-14.19-14.19-14.19-14.19,6.35-14.19,14.19Z"/><circle class="cls-1" cx="59.81" cy="92.94" r="11.7"/><path class="cls-1" d="M45.51,113.87c0,6.46,5.24,11.7,11.7,11.7s11.7-5.24,11.7-11.7-5.24-11.7-11.7-11.7-11.7,5.24-11.7,11.7Z"/><path class="cls-1" d="M49.89,132.56c0,5.27,4.27,9.54,9.54,9.54s9.53-4.27,9.53-9.54-4.27-9.54-9.53-9.54-9.54,4.27-9.54,9.54Z"/><path class="cls-2" d="M163.14,171.05c-4.22,3.79-8.81,7.2-13.68,10.16-1.67,1.02-3.36,2-5.1,2.92l-22.19-58.14c.39,.22,.71,.41,1.04,.63,.43,.27,1,.63,1.67,1.06,.47,.33,1.02,.67,1.59,1.08,6.77,4.61,19.7,14.32,26.78,25.74,2.59,4.16,6.32,10.48,9.89,16.56Z"/><path class="cls-2" d="M149.45,181.2c-1.67,1.02-3.36,2-5.1,2.92-13.23,6.99-28.35,10.95-44.35,10.95-5.26,0-10.42-.43-15.46-1.26-3.61-.57-7.14-1.37-10.6-2.35l-1.69-63.38s25.31-16.09,49.92-2.1c.39,.22,.71,.41,1.04,.63,.43,.27,1,.63,1.67,1.06,.47,.33,1.02,.67,1.59,1.08,1.16,.84,2.28,1.71,3.41,2.67,10.64,9.16,16.44,29.1,19.58,49.78Z"/><path class="cls-3" d="M88.41,102.68l-.7,21.43s3.66,6.29,16.17,7.71c9.31,1.06,12.43-3.64,12.43-3.64l-1.65-18.83-22.48-5.72-3.77-.96Z"/><path d="M92.18,103.64c.04,.59,.24,1.28,.56,2.09,4.45,10.86,17.48,13.6,22.86,14.26l-.94-10.63-22.48-5.72Z"/><path class="cls-3" d="M121.03,60.67s10.37,27.24,5.45,42.02c-4.92,14.78-18.46,11.77-26.49,8.48-8.03-3.29-11.58-8.48-11.58-8.48,0,0-7.76,2.22-12.52-5.12-4.76-7.34-1.23-15.34,3.22-17,4.45-1.66,9.48,1.74,9.48,1.74l-3.69-7.95s18.98-38.57,36.13-13.69Z"/><path class="cls-2" d="M84.54,193.81c-3.61-.57-7.14-1.37-10.6-2.35-14.23-4.06-27.1-11.32-37.77-21,.53-2.16,1.14-4.32,1.84-6.44,8.36-25.63,34.24-35.93,34.24-35.93l3.06,12.54c2.39,7.14,4.04,14.48,4.96,21.96l4.28,31.22Z"/><path d="M124.18,72.75c-.41,0-.79-.25-.95-.65-.12-.32-.29-.42-.43-.46-.73-.25-2.13,.37-2.7,.7-.48,.29-1.11,.13-1.4-.35-.29-.48-.14-1.11,.34-1.4,.26-.16,2.57-1.51,4.41-.89,.78,.26,1.35,.84,1.67,1.66,.2,.53-.06,1.12-.58,1.32-.12,.05-.25,.07-.37,.07Z"/><path d="M110.55,80.16c-.25,0-.5-.09-.7-.28-.42-.4-1.72-1.38-2.85-1.29-.48,.05-.89,.31-1.25,.82-.33,.46-.97,.56-1.42,.23-.46-.33-.56-.97-.23-1.42,.71-.98,1.65-1.56,2.72-1.66,2.21-.21,4.22,1.63,4.44,1.84,.41,.39,.42,1.03,.04,1.44-.2,.21-.47,.32-.74,.32Z"/><path d="M120.19,80.03c-.17,0-.34-.04-.5-.13-.49-.28-.66-.9-.38-1.39,.77-1.35,3.03-3.51,6.12-1.99,.5,.25,.71,.86,.46,1.37-.25,.5-.86,.71-1.37,.47-2.12-1.04-3.32,.94-3.45,1.17-.19,.33-.53,.52-.89,.52Z"/><path d="M118.4,92.99s-.1,0-.15-.01c-.56-.08-.94-.6-.86-1.16,.72-4.85-1.81-11.01-1.83-11.07-.22-.52,.03-1.12,.55-1.33,.52-.22,1.12,.03,1.33,.55,.11,.27,2.77,6.74,1.97,12.16-.08,.51-.51,.87-1.01,.87Z"/><path d="M111.43,100.34c-.09,0-.19-.01-.28-.04-.23-.07-5.71-1.69-7.19-6.13-.18-.53,.11-1.11,.64-1.29,.54-.18,1.11,.11,1.29,.64,1.14,3.41,5.77,4.8,5.82,4.82,.54,.16,.85,.72,.69,1.26-.13,.44-.54,.73-.98,.73Z"/><path d="M87.16,93.84c-.25,0-.49-.09-.69-.27l-8.21-7.52c-.42-.38-.44-1.02-.06-1.44,.38-.42,1.03-.44,1.44-.06l8.21,7.52c.42,.38,.44,1.02,.06,1.44-.2,.22-.48,.33-.75,.33Z"/><path d="M78.54,93.34c-.4,0-.77-.23-.94-.62-.22-.52,.02-1.12,.54-1.34l5.52-2.34c.51-.22,1.12,.02,1.34,.54,.22,.52-.02,1.12-.54,1.34l-5.52,2.34c-.13,.05-.26,.08-.4,.08Z"/><path class="cls-1" d="M88.59,82.3s9.42-.48,15.71-7.89c6.29-7.41,9.45-15.16,9.45-15.16,0,0,3.93,.86,6.31,4.13,1.75,2.41,3.77,5.89,3.77,5.89,0,0,.75-10.79-4.43-16.36s-9.93-3.96-9.93-3.96c0,0-11.6-7.37-24.25,2.79-12.66,10.16-7.92,29.9-7.92,29.9,0,0,6.26-2.15,11.29,.65Z"/><path class="cls-5" d="M105.32,132.97c-.81,0-1.64-.03-2.5-.1-10.43-.85-17.85-6.84-18.16-7.1-.44-.36-.5-1-.14-1.43,.36-.44,1-.5,1.43-.14,.07,.06,7.25,5.84,17.03,6.64,9.73,.79,16.45-3.73,16.52-3.77,.47-.32,1.1-.2,1.42,.26,.32,.46,.2,1.1-.26,1.42-.27,.19-6.25,4.23-15.34,4.23Z"/><path d="M104.36,74.14c-.19,0-.38-.05-.55-.16-.47-.3-.61-.94-.31-1.41,1.05-1.63,2.38-2.61,3.96-2.92,2.62-.51,4.89,1.09,4.98,1.15,.46,.33,.57,.96,.24,1.42-.33,.46-.96,.56-1.42,.24-.03-.02-1.7-1.15-3.43-.81-1.01,.2-1.89,.88-2.62,2.01-.2,.3-.52,.47-.86,.47Z"/></svg>